<svg xmlns="http://www.w3.org/2000/svg" width="720" height="420" font-family="Segoe UI, Arial, sans-serif"><rect width="720" height="420" fill="white"/><text x="360" y="28" text-anchor="middle" font-size="18" font-weight="bold">Fig 1. Redaction-token leakage (STRONG vs CONTEXT)</text><line x1="60" y1="330" x2="700" y2="330" stroke="#e5e5e5"/><text x="52" y="334" text-anchor="end" font-size="11" fill="#555">0.0</text><line x1="60" y1="275.2" x2="700" y2="275.2" stroke="#e5e5e5"/><text x="52" y="279.2" text-anchor="end" font-size="11" fill="#555">0.2</text><line x1="60" y1="220.39999999999998" x2="700" y2="220.39999999999998" stroke="#e5e5e5"/><text x="52" y="224.39999999999998" text-anchor="end" font-size="11" fill="#555">0.4</text><line x1="60" y1="165.6" x2="700" y2="165.6" stroke="#e5e5e5"/><text x="52" y="169.6" text-anchor="end" font-size="11" fill="#555">0.6</text><line x1="60" y1="110.79999999999998" x2="700" y2="110.79999999999998" stroke="#e5e5e5"/><text x="52" y="114.79999999999998" text-anchor="end" font-size="11" fill="#555">0.8</text><line x1="60" y1="56" x2="700" y2="56" stroke="#e5e5e5"/><text x="52" y="60" text-anchor="end" font-size="11" fill="#555">1.0</text><text x="16" y="193" transform="rotate(-90 16 193)" text-anchor="middle" font-size="12" fill="#333">MCC</text><rect x="84" y="56" width="109" height="274" fill="#2c5f8a"/><text x="138.5" y="52" text-anchor="middle" font-size="9" fill="#333">1.00</text><text x="140" y="346" text-anchor="middle" font-size="11" fill="#333">raw</text><rect x="244" y="56" width="109" height="274" fill="#2c5f8a"/><text x="298.5" y="52" text-anchor="middle" font-size="9" fill="#333">1.00</text><text x="300" y="346" text-anchor="middle" font-size="11" fill="#333">mask-distinct</text><rect x="404" y="65.89004036341237" width="109" height="264.10995963658763" fill="#2c5f8a"/><text x="458.5" y="61.89004036341237" text-anchor="middle" font-size="9" fill="#333">0.96</text><text x="460" y="346" text-anchor="middle" font-size="11" fill="#333">masked</text><rect x="564" y="65.89004036341237" width="109" height="264.10995963658763" fill="#2c5f8a"/><text x="618.5" y="61.89004036341237" text-anchor="middle" font-size="9" fill="#333">0.96</text><text x="620" y="346" text-anchor="middle" font-size="11" fill="#333">stripped</text><rect x="60" y="382" width="12" height="12" fill="#2c5f8a"/><text x="78" y="392" font-size="12" fill="#333">LogReg MCC (stratified CV)</text></svg>