<svg xmlns="http://www.w3.org/2000/svg" width="720" height="420" font-family="Segoe UI, Arial, sans-serif"><rect width="720" height="420" fill="white"/><text x="360" y="28" text-anchor="middle" font-size="18" font-weight="bold">Fig 2. Random vs template-disjoint (binary MGY/NOT)</text><line x1="60" y1="330" x2="700" y2="330" stroke="#e5e5e5"/><text x="52" y="334" text-anchor="end" font-size="11" fill="#555">0.0</text><line x1="60" y1="275.2" x2="700" y2="275.2" stroke="#e5e5e5"/><text x="52" y="279.2" text-anchor="end" font-size="11" fill="#555">0.2</text><line x1="60" y1="220.39999999999998" x2="700" y2="220.39999999999998" stroke="#e5e5e5"/><text x="52" y="224.39999999999998" text-anchor="end" font-size="11" fill="#555">0.4</text><line x1="60" y1="165.6" x2="700" y2="165.6" stroke="#e5e5e5"/><text x="52" y="169.6" text-anchor="end" font-size="11" fill="#555">0.6</text><line x1="60" y1="110.79999999999998" x2="700" y2="110.79999999999998" stroke="#e5e5e5"/><text x="52" y="114.79999999999998" text-anchor="end" font-size="11" fill="#555">0.8</text><line x1="60" y1="56" x2="700" y2="56" stroke="#e5e5e5"/><text x="52" y="60" text-anchor="end" font-size="11" fill="#555">1.0</text><text x="16" y="193" transform="rotate(-90 16 193)" text-anchor="middle" font-size="12" fill="#333">macro-F1</text><rect x="84" y="58.14526394352686" width="53" height="271.85473605647314" fill="#2c5f8a"/><text x="110.5" y="54.14526394352686" text-anchor="middle" font-size="9" fill="#333">0.99</text><rect x="140" y="116.87279515476698" width="53" height="213.12720484523302" fill="#e07a3f"/><text x="166.5" y="112.87279515476698" text-anchor="middle" font-size="9" fill="#333">0.78</text><text x="140" y="346" text-anchor="middle" font-size="11" fill="#333">Lexicon</text><rect x="244" y="56" width="53" height="274" fill="#2c5f8a"/><text x="270.5" y="52" text-anchor="middle" font-size="9" fill="#333">1.00</text><rect x="300" y="115.19028422096906" width="53" height="214.80971577903094" fill="#e07a3f"/><text x="326.5" y="111.19028422096906" text-anchor="middle" font-size="9" fill="#333">0.78</text><text x="300" y="346" text-anchor="middle" font-size="11" fill="#333">NaiveBayes</text><rect x="404" y="56" width="53" height="274" fill="#2c5f8a"/><text x="430.5" y="52" text-anchor="middle" font-size="9" fill="#333">1.00</text><rect x="460" y="148.96323712004343" width="53" height="181.03676287995657" fill="#e07a3f"/><text x="486.5" y="144.96323712004343" text-anchor="middle" font-size="9" fill="#333">0.66</text><text x="460" y="346" text-anchor="middle" font-size="11" fill="#333">NB char</text><rect x="564" y="56" width="53" height="274" fill="#2c5f8a"/><text x="590.5" y="52" text-anchor="middle" font-size="9" fill="#333">1.00</text><rect x="620" y="74.02196556077021" width="53" height="255.9780344392298" fill="#e07a3f"/><text x="646.5" y="70.02196556077021" text-anchor="middle" font-size="9" fill="#333">0.93</text><text x="620" y="346" text-anchor="middle" font-size="11" fill="#333">LogReg</text><rect x="60" y="382" width="12" height="12" fill="#2c5f8a"/><text x="78" y="392" font-size="12" fill="#333">random 5-fold</text><rect x="240" y="382" width="12" height="12" fill="#e07a3f"/><text x="258" y="392" font-size="12" fill="#333">template-disjoint</text></svg>