<svg xmlns="http://www.w3.org/2000/svg" width="720" height="420" font-family="Segoe UI, Arial, sans-serif"><rect width="720" height="420" fill="white"/><text x="360" y="28" text-anchor="middle" font-size="18" font-weight="bold">Fig 3. Explicit vs context-dependent misogyny (MCC)</text><line x1="60" y1="330" x2="700" y2="330" stroke="#e5e5e5"/><text x="52" y="334" text-anchor="end" font-size="11" fill="#555">0.0</text><line x1="60" y1="275.2" x2="700" y2="275.2" stroke="#e5e5e5"/><text x="52" y="279.2" text-anchor="end" font-size="11" fill="#555">0.2</text><line x1="60" y1="220.39999999999998" x2="700" y2="220.39999999999998" stroke="#e5e5e5"/><text x="52" y="224.39999999999998" text-anchor="end" font-size="11" fill="#555">0.4</text><line x1="60" y1="165.6" x2="700" y2="165.6" stroke="#e5e5e5"/><text x="52" y="169.6" text-anchor="end" font-size="11" fill="#555">0.6</text><line x1="60" y1="110.79999999999998" x2="700" y2="110.79999999999998" stroke="#e5e5e5"/><text x="52" y="114.79999999999998" text-anchor="end" font-size="11" fill="#555">0.8</text><line x1="60" y1="56" x2="700" y2="56" stroke="#e5e5e5"/><text x="52" y="60" text-anchor="end" font-size="11" fill="#555">1.0</text><text x="16" y="193" transform="rotate(-90 16 193)" text-anchor="middle" font-size="12" fill="#333">MCC</text><rect x="84" y="85.97026443097616" width="53" height="244.02973556902384" fill="#2c5f8a"/><text x="110.5" y="81.97026443097616" text-anchor="middle" font-size="9" fill="#333">0.89</text><rect x="140" y="167.0359055613905" width="53" height="162.9640944386095" fill="#e07a3f"/><text x="166.5" y="163.0359055613905" text-anchor="middle" font-size="9" fill="#333">0.59</text><text x="140" y="346" text-anchor="middle" font-size="11" fill="#333">Lexicon</text><rect x="244" y="65.89004036341237" width="53" height="264.10995963658763" fill="#2c5f8a"/><text x="270.5" y="61.89004036341237" text-anchor="middle" font-size="9" fill="#333">0.96</text><rect x="300" y="151.6797568509872" width="53" height="178.3202431490128" fill="#e07a3f"/><text x="326.5" y="147.6797568509872" text-anchor="middle" font-size="9" fill="#333">0.65</text><text x="300" y="346" text-anchor="middle" font-size="11" fill="#333">NaiveBayes</text><rect x="404" y="65.89004036341237" width="53" height="264.10995963658763" fill="#2c5f8a"/><text x="430.5" y="61.89004036341237" text-anchor="middle" font-size="9" fill="#333">0.96</text><rect x="460" y="136.30961851169707" width="53" height="193.69038148830293" fill="#e07a3f"/><text x="486.5" y="132.30961851169707" text-anchor="middle" font-size="9" fill="#333">0.71</text><text x="460" y="346" text-anchor="middle" font-size="11" fill="#333">LogReg</text><rect x="564" y="81.29358424862679" width="53" height="248.7064157513732" fill="#2c5f8a"/><text x="590.5" y="77.29358424862679" text-anchor="middle" font-size="9" fill="#333">0.91</text><rect x="620" y="127.93577303429586" width="53" height="202.06422696570414" fill="#e07a3f"/><text x="646.5" y="123.93577303429586" text-anchor="middle" font-size="9" fill="#333">0.74</text><text x="620" y="346" text-anchor="middle" font-size="11" fill="#333">Cues-only</text><rect x="60" y="382" width="12" height="12" fill="#2c5f8a"/><text x="78" y="392" font-size="12" fill="#333">random 5-fold</text><rect x="240" y="382" width="12" height="12" fill="#e07a3f"/><text x="258" y="392" font-size="12" fill="#333">template-disjoint</text></svg>