<svg xmlns="http://www.w3.org/2000/svg" width="360" height="360" font-family="Segoe UI, Arial, sans-serif"><rect width="360" height="360" fill="white"/><text x="180" y="26" text-anchor="middle" font-size="15" font-weight="bold">Fig 5. Three-way (NB+cues, template-disjoint)</text><text x="202.5" y="50" text-anchor="middle" font-size="11" fill="#555">predicted</text><text x="127.5" y="66" text-anchor="middle" font-size="11">CONTEXT</text><text x="202.5" y="66" text-anchor="middle" font-size="11">NOT</text><text x="277.5" y="66" text-anchor="middle" font-size="11">STRONG</text><text x="82" y="111.5" text-anchor="end" font-size="11">CONTEXT</text><rect x="90" y="70" width="73" height="73" fill="rgb(202,209,226)" stroke="#fff"/><text x="127.5" y="111.5" text-anchor="middle" font-size="14" fill="#222" font-weight="bold">34</text><rect x="165" y="70" width="73" height="73" fill="rgb(224,225,238)" stroke="#fff"/><text x="202.5" y="111.5" text-anchor="middle" font-size="14" fill="#222" font-weight="bold">0</text><rect x="240" y="70" width="73" height="73" fill="rgb(221,223,236)" stroke="#fff"/><text x="277.5" y="111.5" text-anchor="middle" font-size="14" fill="#222" font-weight="bold">5</text><text x="82" y="186.5" text-anchor="end" font-size="11">NOT</text><rect x="90" y="145" width="73" height="73" fill="rgb(165,182,205)" stroke="#fff"/><text x="127.5" y="186.5" text-anchor="middle" font-size="14" fill="#222" font-weight="bold">93</text><rect x="165" y="145" width="73" height="73" fill="rgb(44,95,138)" stroke="#fff"/><text x="202.5" y="186.5" text-anchor="middle" font-size="14" fill="#fff" font-weight="bold">282</text><rect x="240" y="145" width="73" height="73" fill="rgb(224,225,238)" stroke="#fff"/><text x="277.5" y="186.5" text-anchor="middle" font-size="14" fill="#222" font-weight="bold">0</text><text x="82" y="261.5" text-anchor="end" font-size="11">STRONG</text><rect x="90" y="220" width="73" height="73" fill="rgb(198,206,223)" stroke="#fff"/><text x="127.5" y="261.5" text-anchor="middle" font-size="14" fill="#222" font-weight="bold">41</text><rect x="165" y="220" width="73" height="73" fill="rgb(224,225,238)" stroke="#fff"/><text x="202.5" y="261.5" text-anchor="middle" font-size="14" fill="#222" font-weight="bold">0</text><rect x="240" y="220" width="73" height="73" fill="rgb(195,204,222)" stroke="#fff"/><text x="277.5" y="261.5" text-anchor="middle" font-size="14" fill="#222" font-weight="bold">45</text><text x="180" y="352" text-anchor="middle" font-size="10" fill="#777">n=500</text></svg>