<svg xmlns="http://www.w3.org/2000/svg" width="760" height="440" font-family="Segoe UI, Arial, sans-serif"><rect width="760" height="440" fill="white"/><text x="380" y="30" text-anchor="middle" font-size="17" font-weight="bold">Fig 6. Learning curve (template-disjoint, 25 repeats)</text><line x1="64" y1="356" x2="736" y2="356" stroke="#ececec"/><text x="56" y="360" text-anchor="end" font-size="11" fill="#555">0.0</text><line x1="64" y1="296" x2="736" y2="296" stroke="#ececec"/><text x="56" y="300" text-anchor="end" font-size="11" fill="#555">0.2</text><line x1="64" y1="236" x2="736" y2="236" stroke="#ececec"/><text x="56" y="240" text-anchor="end" font-size="11" fill="#555">0.4</text><line x1="64" y1="176" x2="736" y2="176" stroke="#ececec"/><text x="56" y="180" text-anchor="end" font-size="11" fill="#555">0.6</text><line x1="64" y1="116" x2="736" y2="116" stroke="#ececec"/><text x="56" y="120" text-anchor="end" font-size="11" fill="#555">0.8</text><line x1="64" y1="56" x2="736" y2="56" stroke="#ececec"/><text x="56" y="60" text-anchor="end" font-size="11" fill="#555">1.0</text><text x="157.7674418604651" y="374" text-anchor="middle" font-size="10" fill="#555">6</text><text x="267.1627906976744" y="374" text-anchor="middle" font-size="10" fill="#555">13</text><text x="360.93023255813955" y="374" text-anchor="middle" font-size="10" fill="#555">19</text><text x="470.3255813953488" y="374" text-anchor="middle" font-size="10" fill="#555">26</text><text x="564.0930232558139" y="374" text-anchor="middle" font-size="10" fill="#555">32</text><text x="673.4883720930233" y="374" text-anchor="middle" font-size="10" fill="#555">39</text><text x="736" y="374" text-anchor="middle" font-size="10" fill="#555">43</text><text x="400" y="400" text-anchor="middle" font-size="12" fill="#333"># training templates (independent frames)</text><text x="16" y="206" transform="rotate(-90 16 206)" text-anchor="middle" font-size="12" fill="#333">score (F1 / MCC)</text><path d="M157.7674418604651,140.11749821191194 L267.1627906976744,98.29725070945426 L360.93023255813955,62.31665088843528 L470.3255813953488,56 L564.0930232558139,56 L673.4883720930233,56 L736,56 L736,111.23359303274091 L673.4883720930233,119.35217324372658 L564.0930232558139,144.48442461536953 L470.3255813953488,159.06830149737522 L360.93023255813955,171.50994850112977 L267.1627906976744,228.2800358926524 L157.7674418604651,251.8954561369846 Z" fill="#2c5f8a" opacity="0.12"/><path d="M157.7674418604651,196.00647717444826 L267.1627906976744,163.28864330105333 L360.93023255813955,116.91329969478252 L470.3255813953488,102.40482402409225 L564.0930232558139,93.0053917086737 L673.4883720930233,85.83285543164754 L736,78.04679558224166 " fill="none" stroke="#2c5f8a" stroke-width="2.5"/><circle cx="157.7674418604651" cy="196.00647717444826" r="3.5" fill="#2c5f8a"/><circle cx="267.1627906976744" cy="163.28864330105333" r="3.5" fill="#2c5f8a"/><circle cx="360.93023255813955" cy="116.91329969478252" r="3.5" fill="#2c5f8a"/><circle cx="470.3255813953488" cy="102.40482402409225" r="3.5" fill="#2c5f8a"/><circle cx="564.0930232558139" cy="93.0053917086737" r="3.5" fill="#2c5f8a"/><circle cx="673.4883720930233" cy="85.83285543164754" r="3.5" fill="#2c5f8a"/><circle cx="736" cy="78.04679558224166" r="3.5" fill="#2c5f8a"/><rect x="64" y="414" width="14" height="4" fill="#2c5f8a"/><text x="84" y="420" font-size="11" fill="#333">Binary MGY/NOT</text><path d="M126.51162790697674,132.3212326488678 L173.39534883720933,100.3117367816852 L235.90697674418607,96.54604246511695 L282.79069767441865,96.18367412297977 L345.30232558139534,69.77447427937688 L407.81395348837214,79.27268063655134 L439.06976744186045,86.84340609309191 L439.06976744186045,331.64021070048807 L407.81395348837214,333.56201965404085 L345.30232558139534,339.0129027760379 L282.79069767441865,337.55393232438405 L235.90697674418607,336.09943929164615 L173.39534883720933,338.8760723676058 L126.51162790697674,356 Z" fill="#e07a3f" opacity="0.12"/><path d="M126.51162790697674,255.13826883011996 L173.39534883720933,219.59390457464548 L235.90697674418607,216.32274087838155 L282.79069767441865,216.8688032236819 L345.30232558139534,204.39368852770738 L407.81395348837214,206.41735014529613 L439.06976744186045,209.24180839679 " fill="none" stroke="#e07a3f" stroke-width="2.5"/><circle cx="126.51162790697674" cy="255.13826883011996" r="3.5" fill="#e07a3f"/><circle cx="173.39534883720933" cy="219.59390457464548" r="3.5" fill="#e07a3f"/><circle cx="235.90697674418607" cy="216.32274087838155" r="3.5" fill="#e07a3f"/><circle cx="282.79069767441865" cy="216.8688032236819" r="3.5" fill="#e07a3f"/><circle cx="345.30232558139534" cy="204.39368852770738" r="3.5" fill="#e07a3f"/><circle cx="407.81395348837214" cy="206.41735014529613" r="3.5" fill="#e07a3f"/><circle cx="439.06976744186045" cy="209.24180839679" r="3.5" fill="#e07a3f"/><rect x="314" y="414" width="14" height="4" fill="#e07a3f"/><text x="334" y="420" font-size="11" fill="#333">STRONG vs CONTEXT</text><path d="M126.51162790697674,205.85378226568673 L173.39534883720933,173.54756183622902 L235.90697674418607,148.48654417982272 L282.79069767441865,122.85782679356129 L345.30232558139534,114.46689558525006 L407.81395348837214,111.60159607865694 L439.06976744186045,99.06247432633137 L439.06976744186045,298.0692571670611 L407.81395348837214,298.6139333431666 L345.30232558139534,309.0464201310397 L282.79069767441865,328.63867037405447 L235.90697674418607,333.66608664670383 L173.39534883720933,356 L126.51162790697674,356 Z" fill="#4a9d5b" opacity="0.12"/><path d="M126.51162790697674,300.8312416289793 L173.39534883720933,271.21497551063516 L235.90697674418607,241.07631541326327 L282.79069767441865,225.74824858380788 L345.30232558139534,211.75665785814488 L407.81395348837214,205.10776471091177 L439.06976744186045,198.56586574669623 " fill="none" stroke="#4a9d5b" stroke-width="2.5"/><circle cx="126.51162790697674" cy="300.8312416289793" r="3.5" fill="#4a9d5b"/><circle cx="173.39534883720933" cy="271.21497551063516" r="3.5" fill="#4a9d5b"/><circle cx="235.90697674418607" cy="241.07631541326327" r="3.5" fill="#4a9d5b"/><circle cx="282.79069767441865" cy="225.74824858380788" r="3.5" fill="#4a9d5b"/><circle cx="345.30232558139534" cy="211.75665785814488" r="3.5" fill="#4a9d5b"/><circle cx="407.81395348837214" cy="205.10776471091177" r="3.5" fill="#4a9d5b"/><circle cx="439.06976744186045" cy="198.56586574669623" r="3.5" fill="#4a9d5b"/><rect x="564" y="414" width="14" height="4" fill="#4a9d5b"/><text x="584" y="420" font-size="11" fill="#333">STRONG vs CONTEXT</text></svg>