<svg xmlns="http://www.w3.org/2000/svg" width="760" height="430" font-family="Segoe UI, Arial, sans-serif"><rect width="760" height="430" fill="white"/><text x="380" y="28" text-anchor="middle" font-size="17" font-weight="bold">Fig 8. Use–mention contrast (USE vs COUNTER): accuracy vs consistency</text><line x1="60" y1="334" x2="740" y2="334" stroke="#ececec"/><text x="52" y="338" text-anchor="end" font-size="11" fill="#555">0.0</text><line x1="60" y1="278.4" x2="740" y2="278.4" stroke="#ececec"/><text x="52" y="282.4" text-anchor="end" font-size="11" fill="#555">0.2</text><line x1="60" y1="222.8" x2="740" y2="222.8" stroke="#ececec"/><text x="52" y="226.8" text-anchor="end" font-size="11" fill="#555">0.4</text><line x1="60" y1="167.20000000000002" x2="740" y2="167.20000000000002" stroke="#ececec"/><text x="52" y="171.20000000000002" text-anchor="end" font-size="11" fill="#555">0.6</text><line x1="60" y1="111.6" x2="740" y2="111.6" stroke="#ececec"/><text x="52" y="115.6" text-anchor="end" font-size="11" fill="#555">0.8</text><line x1="60" y1="56" x2="740" y2="56" stroke="#ececec"/><text x="52" y="60" text-anchor="end" font-size="11" fill="#555">1.0</text><text x="16" y="195" transform="rotate(-90 16 195)" text-anchor="middle" font-size="12">score</text><rect x="79.04" y="111.6" width="45.96" height="222.4" fill="#2c5f8a"/><text x="102.02000000000001" y="107.6" text-anchor="middle" font-size="9">0.80</text><rect x="128" y="160.25" width="45.96" height="173.75" fill="#e07a3f"/><text x="150.98" y="156.25" text-anchor="middle" font-size="9">0.63</text><text x="128" y="350" text-anchor="middle" font-size="10" transform="rotate(0 128 350)">Lexicon (le…</text><rect x="215.04" y="77.62222222222226" width="45.96" height="256.37777777777774" fill="#2c5f8a"/><text x="238.01999999999998" y="73.62222222222226" text-anchor="middle" font-size="9">0.92</text><rect x="264" y="110.05555555555554" width="45.96" height="223.94444444444446" fill="#e07a3f"/><text x="286.98" y="106.05555555555554" text-anchor="middle" font-size="9">0.81</text><text x="264" y="350" text-anchor="middle" font-size="10" transform="rotate(0 264 350)">Naive Bayes…</text><rect x="351.04" y="76.07777777777778" width="45.96" height="257.9222222222222" fill="#2c5f8a"/><text x="374.02000000000004" y="72.07777777777778" text-anchor="middle" font-size="9">0.93</text><rect x="400" y="106.19444444444446" width="45.96" height="227.80555555555554" fill="#e07a3f"/><text x="422.98" y="102.19444444444446" text-anchor="middle" font-size="9">0.82</text><text x="400" y="350" text-anchor="middle" font-size="10" transform="rotate(0 400 350)">Linear SVM …</text><rect x="487.04" y="77.62222222222226" width="45.96" height="256.37777777777774" fill="#2c5f8a"/><text x="510.02000000000004" y="73.62222222222226" text-anchor="middle" font-size="9">0.92</text><rect x="536" y="110.05555555555554" width="45.96" height="223.94444444444446" fill="#e07a3f"/><text x="558.98" y="106.05555555555554" text-anchor="middle" font-size="9">0.81</text><text x="536" y="350" text-anchor="middle" font-size="10" transform="rotate(0 536 350)">LogReg TF-I…</text><rect x="623.04" y="125.5" width="45.96" height="208.5" fill="#2c5f8a"/><text x="646.02" y="121.5" text-anchor="middle" font-size="9">0.75</text><rect x="672" y="160.25" width="45.96" height="173.75" fill="#e07a3f"/><text x="694.98" y="156.25" text-anchor="middle" font-size="9">0.63</text><text x="672" y="350" text-anchor="middle" font-size="10" transform="rotate(0 672 350)">Cues-only (…</text><rect x="60" y="390" width="12" height="12" fill="#2c5f8a"/><text x="78" y="400" font-size="12">accuracy</text><rect x="260" y="390" width="12" height="12" fill="#e07a3f"/><text x="278" y="400" font-size="12">contrast consistency</text><text x="380" y="422" text-anchor="middle" font-size="10" fill="#777">dashed expectation: a lexicon/keyword model is structurally incapable of high consistency</text></svg>