<svg xmlns="http://www.w3.org/2000/svg" width="800" height="450" font-family="Segoe UI, Arial, sans-serif"><rect width="800" height="450" fill="white"/><text x="400" y="28" text-anchor="middle" font-size="17" font-weight="bold">Fig 9. The use–mention test is a capability gradient</text><text x="400" y="46" text-anchor="middle" font-size="12" fill="#666">contrast-set consistency on USE_SLUR vs COUNTER (the cleanest use–mention split)</text><line x1="70" y1="354" x2="714" y2="354" stroke="#ececec"/><text x="62" y="358" text-anchor="end" font-size="11" fill="#555">0.0</text><line x1="70" y1="296" x2="714" y2="296" stroke="#ececec"/><text x="62" y="300" text-anchor="end" font-size="11" fill="#555">0.2</text><line x1="70" y1="238" x2="714" y2="238" stroke="#ececec"/><text x="62" y="242" text-anchor="end" font-size="11" fill="#555">0.4</text><line x1="70" y1="180" x2="714" y2="180" stroke="#ececec"/><text x="62" y="184" text-anchor="end" font-size="11" fill="#555">0.6</text><line x1="70" y1="122" x2="714" y2="122" stroke="#ececec"/><text x="62" y="126" text-anchor="end" font-size="11" fill="#555">0.8</text><line x1="70" y1="64" x2="714" y2="64" stroke="#ececec"/><text x="62" y="68" text-anchor="end" font-size="11" fill="#555">1.0</text><text x="16" y="209" transform="rotate(-90 16 209)" text-anchor="middle" font-size="12">pair-consistency</text><rect x="89.32" y="172.75" width="68.69333333333333" height="181.25" fill="#2c5f8a"/><text x="123.66666666666666" y="167.75" text-anchor="middle" font-size="11" font-weight="bold">0.625</text><text x="123.66666666666666" y="370" text-anchor="middle" font-size="10" fill="#333">Lexicon</text><rect x="196.6533333333333" y="172.75" width="68.69333333333333" height="181.25" fill="#2c5f8a"/><text x="230.99999999999997" y="167.75" text-anchor="middle" font-size="11" font-weight="bold">0.625</text><text x="230.99999999999997" y="370" text-anchor="middle" font-size="10" fill="#333">Cues-only</text><rect x="303.9866666666666" y="120.38888888888889" width="68.69333333333333" height="233.61111111111111" fill="#2c5f8a"/><text x="338.33333333333326" y="115.38888888888889" text-anchor="middle" font-size="11" font-weight="bold">0.806</text><text x="338.3333333333333" y="370" text-anchor="middle" font-size="10" fill="#333">Naive Bayes</text><rect x="411.32" y="120.38888888888889" width="68.69333333333333" height="233.61111111111111" fill="#2c5f8a"/><text x="445.66666666666663" y="115.38888888888889" text-anchor="middle" font-size="11" font-weight="bold">0.806</text><text x="445.6666666666667" y="370" text-anchor="middle" font-size="10" fill="#333">LogReg</text><rect x="518.6533333333333" y="116.36111111111111" width="68.69333333333333" height="237.63888888888889" fill="#2c5f8a"/><text x="553" y="111.36111111111111" text-anchor="middle" font-size="11" font-weight="bold">0.819</text><text x="553" y="370" text-anchor="middle" font-size="10" fill="#333">Linear SVM</text><rect x="625.9866666666667" y="64" width="68.69333333333333" height="290" fill="#00a05a"/><text x="660.3333333333334" y="59" text-anchor="middle" font-size="11" font-weight="bold">1.000</text><text x="660.3333333333333" y="370" text-anchor="middle" font-size="10" fill="#333">6 LLMs</text><text x="660.3333333333333" y="382" text-anchor="middle" font-size="10" fill="#333">all 8 prompts</text><line x1="606.6666666666666" y1="64" x2="606.6666666666666" y2="354" stroke="#ccc" stroke-dasharray="4 3"/></svg>